<mxfile host="65bd71144e">
    <diagram id="dEl6_BMuwoARdQlOXXvm" name="Page-1">
        <mxGraphModel dx="2685" dy="3064" grid="1" gridSize="10" guides="1" tooltips="1" connect="1" arrows="1" fold="1" page="1" pageScale="1" pageWidth="827" pageHeight="1169" math="0" shadow="0">
            <root>
                <mxCell id="0"/>
                <mxCell id="1" parent="0"/>
                <mxCell id="5" value="ACTIVITY DIAGRAM CETAK PENILAIAN" style="shape=table;childLayout=tableLayout;startSize=40;collapsible=0;recursiveResize=0;expand=0;fontStyle=1;fillColor=none;align=left;fontSize=14;strokeWidth=3;" parent="1" vertex="1">
                    <mxGeometry x="-827" y="-1169" width="827" height="769" as="geometry"/>
                </mxCell>
                <mxCell id="6" value="" style="shape=tableRow;horizontal=0;swimlaneHead=0;swimlaneBody=0;top=0;left=0;strokeColor=inherit;bottom=0;right=0;dropTarget=0;fontStyle=0;fillColor=none;points=[[0,0.5],[1,0.5]];portConstraint=eastwest;startSize=40;collapsible=0;recursiveResize=0;expand=0;fontSize=14;strokeWidth=3;" parent="5" vertex="1">
                    <mxGeometry y="40" width="827" height="729" as="geometry"/>
                </mxCell>
                <mxCell id="7" value="USER" style="swimlane;swimlaneHead=0;swimlaneBody=0;fontStyle=1;strokeColor=inherit;connectable=0;fillColor=none;startSize=40;collapsible=0;recursiveResize=0;expand=0;fontSize=14;strokeWidth=3;" parent="6" vertex="1">
                    <mxGeometry x="40" width="394" height="729" as="geometry">
                        <mxRectangle width="394" height="729" as="alternateBounds"/>
                    </mxGeometry>
                </mxCell>
                <mxCell id="9" value="" style="ellipse;whiteSpace=wrap;html=1;aspect=fixed;fillColor=light-dark(#0d0c0c, #ededed);fontSize=14;strokeWidth=3;" parent="7" vertex="1">
                    <mxGeometry x="127" y="49" width="40" height="40" as="geometry"/>
                </mxCell>
                <mxCell id="11" value="&lt;font&gt;&lt;b&gt;Pilih Menu Laporan&lt;/b&gt;&lt;/font&gt;" style="rounded=1;whiteSpace=wrap;html=1;fillColor=none;fontSize=14;strokeWidth=3;" parent="7" vertex="1">
                    <mxGeometry x="67" y="129" width="183" height="81" as="geometry"/>
                </mxCell>
                <mxCell id="13" value="&lt;font&gt;&lt;b&gt;Klik Button Print Pada Laporan&lt;/b&gt;&lt;/font&gt;" style="rounded=1;whiteSpace=wrap;html=1;fillColor=none;fontSize=14;strokeWidth=3;" parent="7" vertex="1">
                    <mxGeometry x="67" y="329" width="183" height="81" as="geometry"/>
                </mxCell>
                <mxCell id="15" value="" style="endArrow=classic;html=1;entryX=0.433;entryY=0.001;entryDx=0;entryDy=0;exitX=0.5;exitY=1;exitDx=0;exitDy=0;entryPerimeter=0;fontSize=14;strokeWidth=3;" parent="7" source="9" target="11" edge="1">
                    <mxGeometry width="50" height="50" relative="1" as="geometry">
                        <mxPoint x="267" y="449" as="sourcePoint"/>
                        <mxPoint x="317" y="399" as="targetPoint"/>
                    </mxGeometry>
                </mxCell>
                <mxCell id="8" value="SISTEM" style="swimlane;swimlaneHead=0;swimlaneBody=0;fontStyle=1;strokeColor=inherit;connectable=0;fillColor=none;startSize=40;collapsible=0;recursiveResize=0;expand=0;fontSize=14;strokeWidth=3;" parent="6" vertex="1">
                    <mxGeometry x="434" width="393" height="729" as="geometry">
                        <mxRectangle width="393" height="729" as="alternateBounds"/>
                    </mxGeometry>
                </mxCell>
                <mxCell id="10" value="" style="ellipse;whiteSpace=wrap;html=1;aspect=fixed;fillColor=light-dark(#0d0c0c, #ededed);fontSize=14;strokeWidth=3;" parent="8" vertex="1">
                    <mxGeometry x="174.5" y="679" width="40" height="40" as="geometry"/>
                </mxCell>
                <mxCell id="12" value="&lt;span&gt;&lt;b&gt;Menampilkan Halaman Laporan&lt;/b&gt;&lt;/span&gt;" style="rounded=1;whiteSpace=wrap;html=1;fillColor=none;fontSize=14;strokeWidth=3;" parent="8" vertex="1">
                    <mxGeometry x="113" y="129" width="183" height="81" as="geometry"/>
                </mxCell>
                <mxCell id="14" value="&lt;font&gt;&lt;b&gt;Mencetak Laporan&lt;/b&gt;&lt;/font&gt;" style="rounded=1;whiteSpace=wrap;html=1;fillColor=none;fontSize=14;strokeWidth=3;" parent="8" vertex="1">
                    <mxGeometry x="113" y="409" width="183" height="81" as="geometry"/>
                </mxCell>
                <mxCell id="21" value="" style="endArrow=classic;html=1;entryX=0.5;entryY=0;entryDx=0;entryDy=0;exitX=0.6;exitY=1.017;exitDx=0;exitDy=0;exitPerimeter=0;fontSize=14;strokeWidth=3;" parent="8" edge="1">
                    <mxGeometry width="50" height="50" relative="1" as="geometry">
                        <mxPoint x="192.99999999999994" y="491.3770000000002" as="sourcePoint"/>
                        <mxPoint x="193.2" y="679" as="targetPoint"/>
                    </mxGeometry>
                </mxCell>
                <mxCell id="24" value="" style="edgeStyle=elbowEdgeStyle;elbow=vertical;endArrow=classic;html=1;curved=0;rounded=0;endSize=8;startSize=8;exitX=1;exitY=0.5;exitDx=0;exitDy=0;entryX=0.435;entryY=-0.011;entryDx=0;entryDy=0;entryPerimeter=0;fontSize=14;strokeWidth=3;" edge="1" parent="8" target="14">
                    <mxGeometry width="50" height="50" relative="1" as="geometry">
                        <mxPoint x="-144" y="369.79" as="sourcePoint"/>
                        <mxPoint x="193" y="399" as="targetPoint"/>
                        <Array as="points">
                            <mxPoint x="43" y="369"/>
                        </Array>
                    </mxGeometry>
                </mxCell>
                <mxCell id="17" value="" style="endArrow=classic;html=1;entryX=0;entryY=0.5;entryDx=0;entryDy=0;exitX=1;exitY=0.5;exitDx=0;exitDy=0;fontSize=14;strokeWidth=3;" parent="6" source="11" target="12" edge="1">
                    <mxGeometry width="50" height="50" relative="1" as="geometry">
                        <mxPoint x="307" y="449" as="sourcePoint"/>
                        <mxPoint x="357" y="399" as="targetPoint"/>
                    </mxGeometry>
                </mxCell>
                <mxCell id="23" value="" style="edgeStyle=elbowEdgeStyle;elbow=vertical;endArrow=classic;html=1;curved=0;rounded=0;endSize=8;startSize=8;exitX=0.429;exitY=1.006;exitDx=0;exitDy=0;exitPerimeter=0;entryX=0.429;entryY=-0.025;entryDx=0;entryDy=0;entryPerimeter=0;fontSize=14;strokeWidth=3;" edge="1" parent="6" source="12" target="13">
                    <mxGeometry width="50" height="50" relative="1" as="geometry">
                        <mxPoint x="387" y="359" as="sourcePoint"/>
                        <mxPoint x="437" y="309" as="targetPoint"/>
                    </mxGeometry>
                </mxCell>
            </root>
        </mxGraphModel>
    </diagram>
</mxfile>